<?xml version="1.0" encoding="utf-8"?>
<!-- Generator: Adobe Illustrator 15.0.0, SVG Export Plug-In . SVG Version: 6.00 Build 0)  -->
<!DOCTYPE svg PUBLIC "-//W3C//DTD SVG 1.1//EN" "http://www.w3.org/Graphics/SVG/1.1/DTD/svg11.dtd">
<svg version="1.1" id="Layer_1" xmlns="http://www.w3.org/2000/svg" xmlns:xlink="http://www.w3.org/1999/xlink" x="0px" y="0px"
	 width="500px" height="400px" viewBox="0 0 500 400" enable-background="new 0 0 500 400" xml:space="preserve">
<path fill="#FFFFFF" d="M500,400H0V5c0-2.761,2.239-5,5-5h490c2.762,0,5,2.239,5,5V400z M496,20.5H4V396h492V20.5z M5.975,7.974
	c-1.12,0-2.027,0.908-2.027,2.027s0.907,2.027,2.027,2.027c1.119,0,2.026-0.908,2.026-2.027S7.094,7.974,5.975,7.974z M12.775,7.974
	c-1.119,0-2.027,0.908-2.027,2.027s0.908,2.027,2.027,2.027s2.027-0.908,2.027-2.027S13.894,7.974,12.775,7.974z M19.095,7.974
	c-1.119,0-2.027,0.908-2.027,2.027s0.908,2.027,2.027,2.027s2.026-0.908,2.026-2.027S20.214,7.974,19.095,7.974z"/>
</svg>
