<?xml version="1.0" encoding="utf-8"?>
<!-- Generator: Adobe Illustrator 15.0.0, SVG Export Plug-In . SVG Version: 6.00 Build 0)  -->
<!DOCTYPE svg PUBLIC "-//W3C//DTD SVG 1.1//EN" "http://www.w3.org/Graphics/SVG/1.1/DTD/svg11.dtd">
<svg version="1.1" id="Layer_1" xmlns="http://www.w3.org/2000/svg" xmlns:xlink="http://www.w3.org/1999/xlink" x="0px" y="0px"
	 width="500px" height="400px" viewBox="0 0 500 400" enable-background="new 0 0 500 400" xml:space="preserve">
<path fill="#FFFFFF" d="M364.701,373.029c0,13.539-11.107,24.52-24.814,24.52H162.626c-13.702,0-24.815-10.98-24.815-24.52
	l0.096-348.354c0-13.545,11.113-24.525,24.815-24.525h177.107c13.707,0,24.815,10.98,24.815,24.525L364.701,373.029z
	 M251.132,12.412c-2.609,0-4.725,2.091-4.725,4.673c0,2.58,2.116,4.669,4.725,4.669c2.61,0,4.729-2.09,4.729-4.669
	C255.86,14.502,253.742,12.412,251.132,12.412z M219.241,30.788c-2.205,0-3.997,1.769-3.997,3.951c0,2.18,1.792,3.949,3.997,3.949
	c2.208,0,3.999-1.769,3.999-3.949C223.24,32.557,221.449,30.788,219.241,30.788z M272.082,34.707c0-2.096-1.722-3.795-3.843-3.795
	h-34.266c-2.12,0-3.838,1.699-3.838,3.795l0,0c0,2.096,1.718,3.796,3.838,3.796h34.268
	C270.362,38.503,272.082,36.803,272.082,34.707L272.082,34.707z M350.386,52.607H151.204l-0.068,293.849h199.181L350.386,52.607z
	 M251.046,354.257c-9.899,0-17.923,7.931-17.923,17.715c0,9.782,8.024,17.711,17.923,17.711c9.898,0,17.924-7.929,17.924-17.711
	C268.969,362.189,260.944,354.257,251.046,354.257z"/>
</svg>
