<?xml version="1.0" encoding="utf-8"?>
<!-- Generator: Adobe Illustrator 15.0.0, SVG Export Plug-In . SVG Version: 6.00 Build 0)  -->
<!DOCTYPE svg PUBLIC "-//W3C//DTD SVG 1.1//EN" "http://www.w3.org/Graphics/SVG/1.1/DTD/svg11.dtd">
<svg version="1.1" id="Layer_1" xmlns="http://www.w3.org/2000/svg" xmlns:xlink="http://www.w3.org/1999/xlink" x="0px" y="0px"
	 width="500px" height="400px" viewBox="0 0 500 400" enable-background="new 0 0 500 400" xml:space="preserve">
<path fill="#FFFFFF" d="M500,400H0V5c0-2.761,2.239-5,5-5h490c2.762,0,5,2.239,5,5V400z M496,20.5H4V396h492V20.5z M5.975,7.974
	c-1.12,0-2.027,0.908-2.027,2.027s0.907,2.027,2.027,2.027c1.119,0,2.026-0.908,2.026-2.027S7.094,7.974,5.975,7.974z M12.775,7.974
	c-1.119,0-2.027,0.908-2.027,2.027s0.908,2.027,2.027,2.027c1.119,0,2.027-0.908,2.027-2.027S13.894,7.974,12.775,7.974z
	 M19.095,7.974c-1.119,0-2.027,0.908-2.027,2.027s0.908,2.027,2.027,2.027c1.119,0,2.026-0.908,2.026-2.027
	S20.214,7.974,19.095,7.974z"/>
<path fill="#FFFFFF" d="M350.05,353.397c0,11.928-9.786,21.603-21.862,21.603H172.012c-12.072,0-21.863-9.675-21.863-21.603
	l0.085-306.917c0-11.934,9.791-21.608,21.863-21.608h156.04c12.076,0,21.863,9.674,21.863,21.608L350.05,353.397z M249.99,35.677
	c-2.299,0-4.163,1.842-4.163,4.117c0,2.273,1.864,4.114,4.163,4.114c2.3,0,4.166-1.841,4.166-4.114
	C254.156,37.519,252.29,35.677,249.99,35.677z M221.893,51.867c-1.943,0-3.521,1.559-3.521,3.481c0,1.921,1.578,3.479,3.521,3.479
	c1.946,0,3.523-1.558,3.523-3.479C225.416,53.426,223.838,51.867,221.893,51.867z M268.448,55.32c0-1.847-1.517-3.344-3.386-3.344
	h-30.189c-1.868,0-3.382,1.497-3.382,3.344l0,0c0,1.846,1.514,3.344,3.382,3.344h30.191
	C266.934,58.664,268.448,57.166,268.448,55.32L268.448,55.32z M337.438,71.091H161.949l-0.06,258.895h175.487L337.438,71.091z
	 M249.914,336.858c-8.721,0-15.791,6.986-15.791,15.606c0,8.619,7.07,15.604,15.791,15.604c8.721,0,15.792-6.985,15.792-15.604
	C265.705,343.847,258.635,336.858,249.914,336.858z"/>
<path fill="#FFFFFF" d="M350.05,343.397c0,11.928-9.786,21.603-21.862,21.603H172.012c-12.072,0-21.863-9.675-21.863-21.603
	l0.085-306.917c0-11.934,9.791-21.608,21.863-21.608h156.04c12.076,0,21.863,9.674,21.863,21.608L350.05,343.397z M249.99,25.677
	c-2.299,0-4.163,1.842-4.163,4.117c0,2.273,1.864,4.114,4.163,4.114c2.3,0,4.166-1.841,4.166-4.114
	C254.156,27.519,252.29,25.677,249.99,25.677z M221.893,41.867c-1.943,0-3.521,1.559-3.521,3.481c0,1.921,1.578,3.479,3.521,3.479
	c1.946,0,3.523-1.558,3.523-3.479C225.416,43.426,223.838,41.867,221.893,41.867z M268.448,45.32c0-1.847-1.517-3.344-3.386-3.344
	h-30.189c-1.868,0-3.382,1.497-3.382,3.344l0,0c0,1.846,1.514,3.344,3.382,3.344h30.191
	C266.934,48.664,268.448,47.166,268.448,45.32L268.448,45.32z M337.438,61.091H161.949l-0.06,258.895h175.487L337.438,61.091z
	 M249.914,326.858c-8.721,0-15.791,6.986-15.791,15.606c0,8.619,7.07,15.604,15.791,15.604c8.721,0,15.792-6.985,15.792-15.604
	C265.705,333.847,258.635,326.858,249.914,326.858z"/>
</svg>
